<?xml version="1.0" encoding="utf-8"?>
<!-- Generator: Adobe Illustrator 16.0.0, SVG Export Plug-In . SVG Version: 6.00 Build 0)  -->
<!DOCTYPE svg PUBLIC "-//W3C//DTD SVG 1.1//EN" "http://www.w3.org/Graphics/SVG/1.1/DTD/svg11.dtd">
<svg version="1.1" id="Layer_1" xmlns="http://www.w3.org/2000/svg" xmlns:xlink="http://www.w3.org/1999/xlink" x="0px" y="0px"
	 width="64.004px" height="64.003px" viewBox="0 0 64.004 64.003" enable-background="new 0 0 64.004 64.003" xml:space="preserve">
<g id="ico_360" transform="translate(-1832.365 365.781)">
	<path id="패스_174" fill="#FFFFFF" d="M1864.367-365.781c-17.665,0.021-31.979,14.335-32,32c0.021,17.665,14.335,31.979,32,32
		c17.664-0.021,31.979-14.335,32-32C1896.345-351.446,1882.031-365.76,1864.367-365.781z M1864.367-364.081
		c16.709,0.02,30.256,13.548,30.3,30.257c-0.024-6.249-13.581-11.312-30.3-11.312s-30.273,5.061-30.3,11.308
		C1834.113-350.536,1847.659-364.062,1864.367-364.081L1864.367-364.081z M1864.367-303.476c-16.726-0.021-30.28-13.574-30.3-30.3
		v-0.021c0.013,6.254,13.574,11.32,30.3,11.32h0.16l-2.667,2.667l0.6,0.601l3.341-3.341l0.123-0.172v-0.353l-3.464-3.463l-0.6,0.6
		l2.609,2.609h-0.1c-17.618,0-29.453-5.418-29.453-10.479c0-5.06,11.835-10.478,29.453-10.478s29.453,5.418,29.453,10.478
		c0,4.227-8.26,8.699-21.245,10.061v0.844c12.738-1.338,22.083-5.707,22.095-10.9v0.021
		C1894.653-317.053,1881.096-303.494,1864.367-303.476L1864.367-303.476z"/>
	<path id="패스_175" fill="#FFFFFF" d="M1858.292-334.771c0.438-0.195,0.817-0.502,1.1-0.89c0.274-0.367,0.422-0.813,0.421-1.271
		c0.04-0.801-0.292-1.577-0.9-2.1c-0.715-0.545-1.602-0.815-2.5-0.763c-0.579-0.007-1.153,0.113-1.681,0.352
		c-0.479,0.21-0.89,0.548-1.188,0.977c-0.283,0.416-0.431,0.909-0.424,1.412h2c-0.009-0.319,0.135-0.623,0.387-0.818
		c0.273-0.215,0.613-0.326,0.96-0.314c0.365-0.022,0.724,0.1,1,0.338c0.251,0.249,0.383,0.593,0.362,0.946
		c0.018,0.372-0.114,0.734-0.366,1.008c-0.307,0.276-0.714,0.414-1.126,0.38h-1.064v1.561h1.057c1.104,0,1.657,0.502,1.658,1.505
		c0.018,0.376-0.128,0.74-0.4,1c-0.309,0.266-0.708,0.4-1.115,0.377c-0.381,0.013-0.754-0.115-1.047-0.358
		c-0.277-0.226-0.434-0.567-0.425-0.925h-2c-0.027,0.811,0.326,1.588,0.956,2.1c0.699,0.551,1.573,0.832,2.462,0.795
		c0.931,0.045,1.848-0.241,2.587-0.809c0.645-0.523,1.006-1.318,0.977-2.146c0.013-0.512-0.133-1.013-0.418-1.438
		C1859.251-334.287,1858.804-334.609,1858.292-334.771L1858.292-334.771z"/>
	<path id="패스_176" fill="#FFFFFF" d="M1865.063-336.332c-0.759-0.023-1.492,0.272-2.023,0.815
		c0.072-0.738,0.427-1.419,0.991-1.9c0.623-0.479,1.394-0.727,2.179-0.7h0.193v-1.644h-0.332c-0.94-0.016-1.867,0.224-2.682,0.694
		c-0.771,0.458-1.388,1.133-1.775,1.941c-0.427,0.902-0.639,1.892-0.618,2.891v0.718c-0.054,1.07,0.294,2.122,0.977,2.948
		c0.647,0.733,1.589,1.137,2.566,1.101c0.614,0.01,1.221-0.143,1.757-0.442c0.511-0.287,0.928-0.717,1.2-1.236
		c0.287-0.547,0.434-1.156,0.425-1.774c0.043-0.889-0.23-1.765-0.772-2.472C1866.638-336.016,1865.867-336.364,1865.063-336.332
		L1865.063-336.332z M1865.536-331.582c-0.243,0.326-0.631,0.516-1.039,0.506c-0.439,0.016-0.854-0.197-1.1-0.562
		c-0.288-0.468-0.426-1.013-0.394-1.562v-0.606c0.123-0.274,0.325-0.506,0.58-0.665c0.262-0.167,0.566-0.255,0.877-0.252
		c0.419-0.016,0.819,0.17,1.077,0.5c0.281,0.382,0.423,0.85,0.4,1.324C1865.958-332.428,1865.816-331.963,1865.536-331.582
		L1865.536-331.582z"/>
	<path id="패스_177" fill="#FFFFFF" d="M1874.661-330.573c0.635-0.938,0.938-2.061,0.863-3.19v-1.85
		c0.059-1.104-0.255-2.196-0.892-3.1c-0.619-0.739-1.552-1.14-2.514-1.081c-0.965-0.057-1.899,0.348-2.517,1.091
		c-0.646,0.937-0.952,2.065-0.873,3.2v1.851c-0.06,1.107,0.254,2.201,0.891,3.107c0.618,0.74,1.551,1.143,2.513,1.084
		C1873.105-329.401,1874.048-329.815,1874.661-330.573L1874.661-330.573z M1873.529-333.405c0.029,0.604-0.087,1.207-0.339,1.756
		c-0.211,0.381-0.623,0.604-1.058,0.574c-0.443,0.026-0.863-0.208-1.073-0.601c-0.259-0.573-0.374-1.2-0.335-1.828v-2.447
		c-0.029-0.588,0.093-1.173,0.354-1.7c0.22-0.359,0.619-0.568,1.039-0.542c0.435-0.026,0.848,0.194,1.067,0.57
		c0.268,0.568,0.385,1.195,0.342,1.822L1873.529-333.405z"/>
</g>
</svg>
